<mxfile host="65bd71144e">
    <diagram id="TjyiiZYfwNNI1tJZMrHZ" name="Page-1">
        <mxGraphModel dx="875" dy="645" grid="1" gridSize="10" guides="1" tooltips="1" connect="1" arrows="1" fold="1" page="1" pageScale="1" pageWidth="1169" pageHeight="827" math="0" shadow="0">
            <root>
                <mxCell id="0"/>
                <mxCell id="1" parent="0"/>
                <mxCell id="2" value="GESTION DES CANDIDATS" style="swimlane;fillColor=#1ba1e2;fontColor=#ffffff;strokeColor=#006EAF;" vertex="1" parent="1">
                    <mxGeometry x="150" y="80" width="570" height="430" as="geometry"/>
                </mxCell>
                <mxCell id="3" value="&lt;font face=&quot;Georgia&quot;&gt;Creer une Election&lt;/font&gt;" style="ellipse;whiteSpace=wrap;html=1;" vertex="1" parent="2">
                    <mxGeometry x="20" y="60" width="140" height="70" as="geometry"/>
                </mxCell>
                <mxCell id="4" value="&lt;font face=&quot;Georgia&quot;&gt;Connexion&lt;/font&gt;" style="ellipse;whiteSpace=wrap;html=1;" vertex="1" parent="2">
                    <mxGeometry x="190" y="340" width="140" height="70" as="geometry"/>
                </mxCell>
                <mxCell id="6" value="&lt;font face=&quot;Georgia&quot;&gt;Mettre fin&amp;nbsp;&lt;/font&gt;" style="ellipse;whiteSpace=wrap;html=1;" vertex="1" parent="2">
                    <mxGeometry x="20" y="170" width="140" height="70" as="geometry"/>
                </mxCell>
                <mxCell id="8" value="&amp;lt;&amp;lt;include&amp;gt;&amp;gt;" style="html=1;verticalAlign=bottom;labelBackgroundColor=none;endArrow=open;endFill=0;dashed=1;fontFamily=Georgia;entryX=0.5;entryY=0;entryDx=0;entryDy=0;exitX=1;exitY=0.714;exitDx=0;exitDy=0;exitPerimeter=0;" edge="1" parent="2" source="6" target="4">
                    <mxGeometry x="-0.5012" y="-22" width="160" relative="1" as="geometry">
                        <mxPoint x="360" y="225" as="sourcePoint"/>
                        <mxPoint x="320.3770920234865" y="303.1122552140919" as="targetPoint"/>
                        <mxPoint as="offset"/>
                        <Array as="points">
                            <mxPoint x="260" y="225"/>
                        </Array>
                    </mxGeometry>
                </mxCell>
                <mxCell id="9" value="&amp;lt;&amp;lt;include&amp;gt;&amp;gt;" style="html=1;verticalAlign=bottom;labelBackgroundColor=none;endArrow=open;endFill=0;dashed=1;fontFamily=Georgia;exitX=1;exitY=0.5;exitDx=0;exitDy=0;" edge="1" parent="2" source="3" target="4">
                    <mxGeometry x="-0.7681" y="-25" width="160" relative="1" as="geometry">
                        <mxPoint x="360" y="95" as="sourcePoint"/>
                        <mxPoint x="345" y="391" as="targetPoint"/>
                        <mxPoint as="offset"/>
                        <Array as="points">
                            <mxPoint x="260" y="100"/>
                        </Array>
                    </mxGeometry>
                </mxCell>
                <mxCell id="18" value="&lt;font face=&quot;Georgia&quot;&gt;Augmenter le nombre de tours&lt;/font&gt;" style="ellipse;whiteSpace=wrap;html=1;" vertex="1" parent="2">
                    <mxGeometry x="355" y="50" width="140" height="70" as="geometry"/>
                </mxCell>
                <mxCell id="19" value="&amp;lt;&amp;lt;extend&amp;gt;&amp;gt;" style="html=1;verticalAlign=bottom;labelBackgroundColor=none;endArrow=open;endFill=0;dashed=1;" edge="1" parent="2" target="18">
                    <mxGeometry width="160" relative="1" as="geometry">
                        <mxPoint x="150" y="80" as="sourcePoint"/>
                        <mxPoint x="310" y="80" as="targetPoint"/>
                    </mxGeometry>
                </mxCell>
                <mxCell id="21" style="edgeStyle=none;html=1;entryX=0.05;entryY=0.714;entryDx=0;entryDy=0;entryPerimeter=0;" edge="1" parent="1" source="20" target="3">
                    <mxGeometry relative="1" as="geometry"/>
                </mxCell>
                <mxCell id="22" style="edgeStyle=none;html=1;" edge="1" parent="1" source="20" target="6">
                    <mxGeometry relative="1" as="geometry"/>
                </mxCell>
                <mxCell id="20" value="Gerant 2" style="verticalLabelPosition=bottom;sketch=0;html=1;fillColor=#f5f5f5;verticalAlign=top;align=center;pointerEvents=1;shape=mxgraph.cisco_safe.design.actor_2;fontFamily=Georgia;gradientColor=#b3b3b3;strokeColor=#666666;" vertex="1" parent="1">
                    <mxGeometry x="30" y="230" width="30" height="70" as="geometry"/>
                </mxCell>
            </root>
        </mxGraphModel>
    </diagram>
</mxfile>